<svg width="4047" height="1715" xmlns="http://www.w3.org/2000/svg" xmlns:xlink="http://www.w3.org/1999/xlink" xml:space="preserve" overflow="hidden"><defs><clipPath id="clip0"><rect x="1934" y="1164" width="200" height="199"/></clipPath><clipPath id="clip1"><rect x="1934" y="1164" width="200" height="199"/></clipPath><clipPath id="clip2"><rect x="1934" y="1164" width="200" height="199"/></clipPath></defs><g transform="translate(-152 -319)"><path d="M2422 488C2468.52 478.492 2562.7 497.107 2637.98 488 2713.27 478.893 2802.62 493.309 2871.55 488 2940.47 482.691 3077.45 492.041 3140.27 488 3203.09 483.959 3289.4 478.06 3426.57 488 3563.74 497.94 3584.35 485.698 3642.55 488 3700.76 490.302 3765.66 494.734 3876.12 488 3986.57 481.266 4079.97 473.52 4180 488 4175.94 590.067 4188.66 629.611 4180 712.91 4171.34 796.21 4189.58 864.144 4180 905.69 4170.42 947.236 4182.65 1025.83 4180 1098.47 4177.35 1171.11 4170.57 1234.66 4180 1323.38 4189.43 1412.1 4172.47 1499.48 4180 1559 4076.98 1562.34 4029.33 1550.79 3928.86 1559 3828.39 1567.21 3756.44 1560.23 3642.55 1559 3528.67 1557.77 3498.14 1561.64 3408.99 1559 3319.84 1556.36 3251.85 1567.12 3157.85 1559 3063.84 1550.88 3004.99 1566.4 2959.45 1559 2913.9 1551.6 2762.11 1565.8 2708.3 1559 2654.49 1552.2 2496.6 1551.95 2422 1559 2426.1 1461.53 2426.52 1396.92 2422 1334.09 2417.48 1271.25 2425.74 1208.24 2422 1109.18 2418.26 1010.12 2414 954.605 2422 905.69 2430 856.775 2421.34 766.854 2422 691.49 2422.66 616.127 2425.38 537.118 2422 488Z" fill="#C1E5F5" fill-rule="evenodd"/><path d="M2422 488C2510.2 479.511 2560.52 498.505 2637.98 488 2715.45 477.496 2828.94 500.189 2924.29 488 3019.63 475.811 3028.18 490.379 3122.69 488 3217.2 485.621 3310.1 481.466 3391.41 488 3472.73 494.534 3582.98 480.399 3642.55 488 3702.13 495.601 3788.88 489.355 3840.96 488 3893.03 486.645 4107.2 476.958 4180 488 4174.24 562.993 4183.19 619.131 4180 712.91 4176.81 806.69 4171.68 831.731 4180 937.82 4188.32 1043.91 4182.13 1063.65 4180 1162.73 4177.87 1261.81 4184.72 1430.14 4180 1559 4084.17 1555.83 4047.43 1560.62 3981.6 1559 3915.77 1557.38 3814.65 1556.24 3695.29 1559 3575.93 1561.76 3560.21 1569.14 3461.73 1559 3363.25 1548.86 3276.06 1559.69 3193.01 1559 3109.96 1558.31 2998.62 1553.79 2941.87 1559 2885.12 1564.21 2762.03 1569.53 2708.3 1559 2654.57 1548.47 2512.32 1562.97 2422 1559 2431.74 1465.82 2415.29 1392.24 2422 1323.38 2428.71 1254.52 2418.12 1209.02 2422 1119.89 2425.88 1030.76 2415.25 977.265 2422 916.4 2428.75 855.535 2419.79 763.08 2422 712.91 2424.21 662.741 2432.64 559.995 2422 488Z" stroke="#156082" stroke-width="27.5" stroke-miterlimit="8" fill="none" fill-rule="evenodd"/><text font-family="Neo Euler,Neo Euler_MSFontService,sans-serif" font-weight="700" font-size="110" transform="matrix(1 0 0 1 2945.13 680)">Lean </text><text font-family="Neo Euler,Neo Euler_MSFontService,sans-serif" font-weight="700" font-size="110" transform="matrix(1 0 0 1 3253.36 680)">Runner</text><path d="M1247 478C1292.17 487.296 1370.67 477.845 1439.06 478 1507.45 478.156 1582.68 483.034 1641.79 478 1700.9 472.966 1807.64 484.271 1865.86 478 1924.08 471.729 1990.97 480.273 2100.6 478 2210.23 475.727 2223.96 483.444 2314 478 2310.99 538.92 2323.52 619.383 2314 680.474 2304.49 741.566 2312.11 836.512 2314 882.949 2315.89 929.385 2307.54 1045.41 2314 1131.14 2320.46 1216.88 2313.68 1230.21 2314 1318.38 2314.32 1406.54 2308.54 1435.01 2314 1505.61 2319.46 1576.21 2321.01 1636.52 2314 1738.57 2306.99 1840.61 2313.98 1938.55 2314 2002 2244.27 1991.55 2167.83 2001.75 2100.6 2002 2033.37 2002.25 1928.27 1991.49 1865.86 2002 1803.45 2012.51 1706.4 1995.05 1663.13 2002 1619.86 2008.95 1549.45 1993.66 1449.73 2002 1350.01 2010.34 1347.71 1998.46 1247 2002 1253.91 1951.95 1247.39 1837.27 1247 1784.29 1246.61 1731.3 1257.74 1659.18 1247 1551.33 1236.26 1443.48 1239.35 1401.1 1247 1303.14 1254.65 1205.18 1255.44 1177.44 1247 1070.18 1238.56 962.926 1244.63 960.141 1247 867.709 1249.37 775.276 1265.98 643.851 1247 478Z" fill="#D9F2D0" fill-rule="evenodd"/><path d="M1247 478C1305.08 481.531 1368.23 486.795 1471.07 478 1573.91 469.205 1593.98 474.795 1652.46 478 1710.94 481.205 1837.08 480.981 1887.2 478 1937.32 475.019 1986.97 474.933 2068.59 478 2150.21 481.067 2239.22 482.433 2314 478 2317.33 547.864 2305.74 633.163 2314 695.714 2322.26 758.266 2324.8 844.913 2314 913.429 2303.2 981.944 2307.88 1055.04 2314 1161.62 2320.12 1268.21 2306.39 1281.27 2314 1364.1 2321.61 1446.93 2303.81 1531.84 2314 1597.05 2324.19 1662.26 2314.61 1889.56 2314 2002 2224.66 1991.96 2147.86 1999.47 2100.6 2002 2053.34 2004.53 1961.71 1992.91 1897.87 2002 1834.03 2011.09 1713.2 2001.6 1663.13 2002 1613.06 2002.4 1553.25 2005.04 1460.4 2002 1367.55 1998.96 1304.37 1996.45 1247 2002 1238.4 1896.53 1249.35 1833.29 1247 1784.29 1244.65 1735.28 1253.72 1655.34 1247 1566.57 1240.28 1477.8 1250.63 1438.03 1247 1364.1 1243.37 1290.16 1243.4 1246.44 1247 1176.86 1250.6 1107.28 1254.47 1030.62 1247 974.389 1239.53 918.154 1247.68 860.385 1247 771.914 1246.32 683.444 1236.95 591.927 1247 478Z" stroke="#4EA72E" stroke-width="27.5" stroke-miterlimit="8" fill="none" fill-rule="evenodd"/><text font-family="Neo Euler,Neo Euler_MSFontService,sans-serif" font-weight="700" font-size="110" transform="matrix(1 0 0 1 1464.7 679)">Lean Server</text><path d="M1666 432.5C1666 369.816 1717.04 319 1780 319 1842.96 319 1894 369.816 1894 432.5 1894 495.184 1842.96 546 1780 546 1717.04 546 1666 495.184 1666 432.5Z" fill="#4EA72E" fill-rule="evenodd"/><g><g><g><path d="M98.4637 78.0076 113.385 78.0076C114.105 78.0076 114.691 77.4253 114.695 76.7049L114.695 63.4173C114.695 62.6939 114.108 62.1075 113.385 62.1075L98.4637 62.1075C97.744 62.1075 97.161 62.6908 97.161 63.4103L97.161 76.7049C97.161 77.4232 97.7455 78.0076 98.4637 78.0076M77.6626 39.7714 92.5769 39.7714C93.3 39.7714 93.8866 39.1849 93.8866 38.4616L93.8866 25.1669C93.8824 24.4464 93.2972 23.8642 92.5769 23.8642L77.6626 23.8642C76.9429 23.8642 76.3599 24.4475 76.3599 25.1669L76.3599 38.4616C76.3599 39.1799 76.9373 39.7643 77.6626 39.7643M77.6626 58.8895 92.5769 58.8895C93.2986 58.8856 93.8831 58.3015 93.8866 57.5798L93.8866 44.2921C93.8824 43.5715 93.2972 42.9894 92.5769 42.9894L77.6626 42.9894C76.9429 42.9894 76.3599 43.5727 76.3599 44.2921L76.3599 57.5798C76.3599 58.298 76.9373 58.8825 77.6626 58.8895M57.0305 58.8895 71.9588 58.8895C72.6764 58.8818 73.2545 58.2976 73.2545 57.5798L73.2545 44.2921C73.2545 43.5727 72.6715 42.9894 71.9518 42.9894L57.0375 42.9894C56.3181 42.9894 55.7348 43.5727 55.7348 44.2921L55.7348 57.5798C55.7348 58.298 56.3193 58.8825 57.0375 58.8895M36.166 58.8895 51.0873 58.8895C51.8079 58.8856 52.39 58.3004 52.39 57.5798L52.39 44.2921C52.39 43.5727 51.8068 42.9894 51.0873 42.9894L36.166 42.9894C35.4454 42.9894 34.8601 43.5715 34.8563 44.2921L34.8563 57.5798C34.8563 58.298 35.4478 58.8825 36.166 58.8895M77.6626 78.0076 92.5769 78.0076C93.2972 78.0076 93.8824 77.4253 93.8866 76.7049L93.8866 63.4173C93.8866 62.6939 93.3 62.1075 92.5769 62.1075L77.6626 62.1075C76.9429 62.1075 76.3599 62.6908 76.3599 63.4103L76.3599 76.7049C76.3599 77.4232 76.9373 78.0076 77.6626 78.0076M57.0305 78.0076 71.9588 78.0076C72.6757 78.0034 73.2545 77.4218 73.2545 76.7049L73.2545 63.4173C73.2587 62.6978 72.6785 62.1114 71.9588 62.1075 71.9588 62.1075 71.9588 62.1075 71.9588 62.1075L57.0305 62.1075C56.3138 62.1114 55.7348 62.6936 55.7348 63.4103L55.7348 76.7049C55.7348 77.4232 56.3193 78.0076 57.0375 78.0076M36.166 78.0076 51.0873 78.0076C51.8068 78.0076 52.39 77.4246 52.39 76.7049L52.39 63.4173C52.3939 62.6978 51.8139 62.1114 51.0944 62.1075 51.0944 62.1075 51.0944 62.1075 51.0944 62.1075L36.166 62.1075C35.4427 62.1075 34.8563 62.6939 34.8563 63.4173L34.8563 76.7049C34.8563 77.4232 35.4478 78.0076 36.166 78.0076M15.6043 78.0076 30.5327 78.0076C31.2494 78.0034 31.8284 77.4218 31.8284 76.7049L31.8284 63.4173C31.8322 62.6978 31.2522 62.1114 30.5328 62.1075 30.5327 62.1075 30.5327 62.1075 30.5327 62.1075L15.6043 62.1075C14.8876 62.1114 14.3087 62.6936 14.3087 63.4103L14.3087 76.7049C14.3087 77.4232 14.8861 78.0076 15.6114 78.0076M167.331 69.6421C166.874 69.283 162.599 66.0509 153.572 66.0509 151.192 66.0579 148.812 66.2621 146.46 66.6635 144.713 54.6927 134.82 48.8481 134.376 48.5946L131.954 47.1933 130.362 49.4959C128.363 52.5802 126.912 55.9883 126.053 59.5655 124.433 66.3959 125.419 72.8179 128.891 78.3034 124.701 80.6412 117.976 81.2116 116.61 81.2609L5.2883 81.2609C2.37863 81.2644 0.0186622 83.6184 0.00704158 86.5281-0.123358 96.2794 1.52801 105.973 4.87988 115.131 8.71759 125.187 14.4213 132.595 21.8503 137.13 30.1595 142.221 43.6795 145.136 58.9951 145.136 65.9171 145.157 72.8179 144.53 79.6272 143.263 89.0828 141.526 98.182 138.22 106.548 133.482 113.448 129.489 119.645 124.412 124.926 118.441 133.742 108.456 138.996 97.337 142.904 87.4576L144.46 87.4576C154.121 87.4576 160.057 83.5917 163.332 80.3525 165.507 78.2893 167.205 75.7754 168.31 72.9869L169 70.9589Z" fill="#FFFFFF" transform="matrix(1.00592 0 0 1 1703 348)"/></g></g></g><g><g><g><path d="M178.843 4.29825C170.329-3.29175 160.034-0.23925 149.861 8.78625 148.293 10.1906 146.787 11.6634 145.348 13.2 127.949 31.6552 111.804 65.835 106.788 91.938 108.743 95.898 110.27 100.955 111.276 104.816 111.78 106.737 112.231 108.671 112.629 110.616 112.629 110.616 112.472 110.03 111.837 108.174L111.424 106.969C111.34 106.748 111.249 106.527 111.152 106.309 110.014 103.67 106.879 98.1007 105.493 95.6752 104.313 99.165 103.265 102.424 102.391 105.377 106.384 112.67 108.809 125.177 108.809 125.177 108.809 125.177 108.603 124.361 107.596 121.531 106.714 119.031 102.284 111.268 101.228 109.453 99.4373 116.086 98.7195 120.557 99.363 121.646 100.617 123.758 101.805 127.405 102.844 131.431 105.204 140.506 106.846 151.561 106.846 151.561L106.986 153.409C106.676 160.968 106.83 168.539 107.448 176.08 108.232 185.534 109.7 193.652 111.573 198L112.852 197.307C110.096 188.743 108.974 177.515 109.469 164.579 110.212 144.796 114.766 120.937 123.173 96.0713 137.387 58.5337 157.105 28.413 175.147 14.025 158.705 28.875 136.439 76.9725 129.772 94.776 122.314 114.708 117.026 133.419 113.842 151.346 119.336 134.541 137.115 127.322 137.115 127.322 137.115 127.322 145.835 116.564 156.024 101.203 149.919 102.597 139.895 104.981 136.537 106.392 131.587 108.463 130.251 109.172 130.251 109.172 130.251 109.172 146.297 99.4043 160.058 94.9822 178.984 65.175 199.609 22.8277 178.843 4.29825M25.6163 8.778C17.2653 8.80968 10.5046 15.574 10.4775 23.925L10.4775 160.941C10.5047 169.289 17.268 176.049 25.6163 176.071L103.315 176.071C102.732 168.642 102.59 161.185 102.886 153.739 102.836 153.227 102.795 152.576 102.754 152.089 101.747 145.495 100.445 138.948 98.8515 132.47 97.8532 128.593 96.5827 125.062 95.8073 123.75 94.8503 122.125 94.9988 121.192 95.007 120.186 95.007 119.196 95.1308 118.165 95.3123 117.002 95.8007 114.095 96.4458 111.217 97.2427 108.38L99.033 108.149C98.8928 107.861 98.9175 107.613 98.7772 107.349L98.439 104.206C99.4265 100.902 100.478 97.6181 101.59 94.3553L103.241 94.1985C103.174 94.0665 103.158 93.885 103.092 93.7612L102.737 91.1543C107.935 64.0943 124.08 29.7495 142.337 10.3785 142.882 9.80925 143.434 9.3225 143.971 8.778Z" transform="matrix(1.00505 0 0 1 1471 823)"/></g></g></g><text font-family="Neo Euler,Neo Euler_MSFontService,sans-serif" font-weight="700" font-size="73" transform="matrix(1 0 0 1 1446.4 1114)">SQLite</text><g clip-path="url(#clip0)"><g clip-path="url(#clip1)"><g clip-path="url(#clip2)"><path d="M99 0.319275C44.3264 0.3168 0.002475 44.4931 0 98.9901-0.00825 153.495 44.319 197.683 99 197.681 153.681 197.683 198.008 153.495 198 98.9901 197.998 44.4931 153.674 0.3168 99 0.3201M92.1607 44.9963 154.448 44.9963 91.9091 88.9556 134.667 88.9556 43.5518 152.985C59.758 116.991 75.9611 80.9941 92.1607 44.9955" transform="matrix(1.00505 0 0 1 1935 1165)"/></g></g></g><text font-family="Neo Euler,Neo Euler_MSFontService,sans-serif" font-weight="700" font-size="73" transform="matrix(1 0 0 1 1891.32 1456)">FastAPI</text><g><g><g><path d="M152.839 4.20703 78.2719 4.20703M152.839 4.20703 180.185 62.5926M152.839 4.20703 152.839 62.5926M180.185 62.5926 235.222 62.5926M180.185 62.5926 207.161 120.979 208.066 120.976 235.222 62.5926M152.839 62.5926 152.839 120.979 3.7037 120.979 3.7037 3.7037M152.839 62.5926 78.2719 62.5926M235.222 62.5926 261.482 4.20703M261.482 4.20703 261.482 121.482M261.482 4.20703 261.976 4.20703 355.802 121.077 356.296 121.077 356.296 3.7037" stroke="#000000" stroke-width="2.96296" stroke-linecap="round" stroke-linejoin="round" fill="none" transform="matrix(1.00278 0 0 1 1342 1524.41)"/></g></g></g><text font-family="Neo Euler,Neo Euler_MSFontService,sans-serif" font-weight="700" font-size="73" transform="matrix(1 0 0 1 1416.89 1754)">LEAN</text><path d="M2015.84 1535.79 2008.56 1546.59 1999.44 1553.3 1990.94 1558.95 1981.85 1564.42 1972.22 1569.72 1962.06 1574.84 1951.39 1579.77 1940.25 1584.51 1928.66 1589.04 1916.65 1593.36 1904.25 1597.46 1891.42 1601.34 1864.94 1608.32 1837.25 1614.24 1808.54 1619.03 1772.03 1622.72 1769.95 1602.2 1806.14 1598.54 1805.48 1598.63 1833.62 1593.94 1833.16 1594.02 1860.38 1588.2 1859.92 1588.31 1885.98 1581.45 1885.62 1581.55 1898.15 1577.76 1897.9 1577.83 1910.06 1573.82 1909.8 1573.91 1921.55 1569.68 1921.28 1569.78 1932.6 1565.35 1932.32 1565.47 1943.17 1560.85 1942.88 1560.98 1953.24 1556.19 1952.93 1556.34 1962.77 1551.38 1962.44 1551.56 1971.74 1546.45 1971.38 1546.65 1980.1 1541.4 1979.72 1541.64 1987.83 1536.26 1987.42 1536.54 1994.9 1531.04 1992.45 1533.59 1998.73 1524.27ZM1975.64 1522.15 2034.92 1486.5 2027.87 1555.32ZM1782.91 1642.81 1719.5 1615.17 1779.67 1581.03Z" fill="#275317"/><text font-family="Neo Euler,Neo Euler_MSFontService,sans-serif" font-weight="700" font-size="73" transform="matrix(1 0 0 1 1872.8 1700)">REPL</text><path d="M1761.69 933.872 1772.97 934.704 1788.9 937.23 1804.42 940.215 1819.75 943.683 1834.86 947.615 1849.72 951.992 1864.3 956.798 1878.58 962.013 1892.52 967.622 1906.09 973.606 1919.27 979.95 1932.03 986.635 1944.33 993.647 1956.14 1000.97 1967.45 1008.59 1978.21 1016.48 1988.4 1024.65 1997.99 1033.06 2006.94 1041.72 2015.23 1050.61 2022.82 1059.71 2030.18 1069.7 2037.11 1085.76 2018.17 1093.93 2011.71 1078.95 2012.88 1080.98 2006.4 1072.19 2006.78 1072.68 1999.57 1064.04 1999.95 1064.47 1992.04 1055.98 1992.41 1056.36 1983.83 1048.06 1984.19 1048.4 1974.97 1040.3 1975.32 1040.6 1965.48 1032.72 1965.83 1032.98 1955.41 1025.34 1955.75 1025.57 1944.78 1018.18 1945.11 1018.4 1933.62 1011.28 1933.95 1011.47 1921.97 1004.64 1922.29 1004.82 1909.85 998.299 1910.17 998.457 1897.3 992.265 1897.62 992.409 1884.35 986.562 1884.66 986.693 1871.04 981.21 1871.35 981.329 1857.38 976.227 1857.69 976.335 1843.42 971.633 1843.74 971.73 1829.19 967.446 1829.51 967.534 1814.72 963.685 1815.04 963.763 1800.03 960.369 1800.36 960.437 1785.17 957.515 1785.51 957.574 1770.17 955.143 1771.02 955.242 1760.17 954.441ZM1769.03 975.747 1709.5 940.5 1773.41 914.028ZM2053.94 1070.57 2043.4 1138.94 1995.03 1089.48Z" fill="#275317"/><path d="M3301.2 737.606 3301.2 911.143" stroke="#156082" stroke-width="10.3125" stroke-linejoin="round" stroke-miterlimit="10" fill="none" fill-rule="evenodd"/><path d="M2523.48 905.987 4078.93 905.987" stroke="#156082" stroke-width="10.3125" stroke-linejoin="round" stroke-miterlimit="10" fill="none" fill-rule="evenodd"/><path d="M2523.48 1049.9 4078.93 1049.9" stroke="#156082" stroke-width="10.3125" stroke-linejoin="round" stroke-miterlimit="10" fill="none" fill-rule="evenodd"/><path d="M2523.48 1201.77 4078.93 1201.77" stroke="#156082" stroke-width="10.3125" stroke-linejoin="round" stroke-miterlimit="10" fill="none" fill-rule="evenodd"/><path d="M2523.48 1344.77 4078.93 1344.77" stroke="#156082" stroke-width="10.3125" stroke-linejoin="round" stroke-miterlimit="10" fill="none" fill-rule="evenodd"/><path d="M2528.63 737.606 2528.63 1492.93" stroke="#156082" stroke-width="10.3125" stroke-linejoin="round" stroke-miterlimit="10" fill="none" fill-rule="evenodd"/><path d="M4073.77 737.606 4073.77 1492.93" stroke="#156082" stroke-width="10.3125" stroke-linejoin="round" stroke-miterlimit="10" fill="none" fill-rule="evenodd"/><path d="M2523.48 742.762 4078.93 742.762" stroke="#156082" stroke-width="10.3125" stroke-linejoin="round" stroke-miterlimit="10" fill="none" fill-rule="evenodd"/><path d="M2523.48 1487.77 4078.93 1487.77" stroke="#156082" stroke-width="10.3125" stroke-linejoin="round" stroke-miterlimit="10" fill="none" fill-rule="evenodd"/><text font-family="Neo Euler,Neo Euler_MSFontService,sans-serif" font-weight="700" font-size="92" transform="matrix(1 0 0 1 3403.32 864)">AsyncClient</text><text font-family="Neo Euler,Neo Euler_MSFontService,sans-serif" font-weight="700" font-size="92" transform="matrix(1 0 0 1 3971.65 864)"> </text><text font-family="Neo Euler,Neo Euler_MSFontService,sans-serif" font-weight="700" font-size="92" transform="matrix(1 0 0 1 2771.11 864)">Client</text><text font-family="Neo Euler,Neo Euler_MSFontService,sans-serif" font-weight="700" font-size="92" transform="matrix(1 0 0 1 3058.72 864)"> </text><text font-family="CMU Typewriter Text,CMU Typewriter Text_MSFontService,sans-serif" font-weight="700" font-size="92" transform="matrix(1 0 0 1 2988.39 1010)">verify(Proof)</text><text font-family="CMU Typewriter Text,CMU Typewriter Text_MSFontService,sans-serif" font-weight="700" font-size="92" transform="matrix(1 0 0 1 2675.58 1158)">verify_all</text><text font-family="CMU Typewriter Text,CMU Typewriter Text_MSFontService,sans-serif" font-weight="700" font-size="92" transform="matrix(1 0 0 1 3156.83 1158)">(Iterate[Proof])</text><text font-family="CMU Typewriter Text,CMU Typewriter Text_MSFontService,sans-serif" font-weight="700" font-size="92" transform="matrix(1 0 0 1 2868.08 1305)">submit() </text><text font-family="CMU Typewriter Text,CMU Typewriter Text_MSFontService,sans-serif" font-weight="700" font-size="92" transform="matrix(1 0 0 1 3301.2 1305)">→</text><text font-family="CMU Typewriter Text,CMU Typewriter Text_MSFontService,sans-serif" font-weight="700" font-size="92" transform="matrix(1 0 0 1 3397.45 1305)">ProofID</text><text font-family="CMU Typewriter Text,CMU Typewriter Text_MSFontService,sans-serif" font-weight="700" font-size="92" transform="matrix(1 0 0 1 2844.01 1448)">get_result</text><text font-family="CMU Typewriter Text,CMU Typewriter Text_MSFontService,sans-serif" font-weight="700" font-size="92" transform="matrix(1 0 0 1 3325.26 1448)">(</text><text font-family="CMU Typewriter Text,CMU Typewriter Text_MSFontService,sans-serif" font-weight="700" font-size="92" transform="matrix(1 0 0 1 3373.39 1448)">ProofID</text><text font-family="CMU Typewriter Text,CMU Typewriter Text_MSFontService,sans-serif" font-weight="700" font-size="92" transform="matrix(1 0 0 1 3710.26 1448)">)</text><path d="M156.5 522.001C156.5 493.005 180.005 469.5 209 469.5L1125 469.5C1153.99 469.5 1177.5 493.005 1177.5 522.001L1177.5 731.999C1177.5 760.995 1153.99 784.5 1125 784.5L209 784.5C180.005 784.5 156.5 760.995 156.5 731.999Z" stroke="#4EA72E" stroke-width="6.875" stroke-miterlimit="8" fill="#D9F2D0" fill-rule="evenodd"/><text font-family="Roboto Slab,Roboto Slab_MSFontService,sans-serif" font-weight="700" font-size="73" transform="matrix(1 0 0 1 470.733 565)">Dockerized</text><text font-family="Roboto Slab,Roboto Slab_MSFontService,sans-serif" font-weight="700" font-size="73" transform="matrix(1 0 0 1 862.608 565)"> </text><text font-family="Roboto Slab,Roboto Slab_MSFontService,sans-serif" font-weight="400" font-size="73" transform="matrix(1 0 0 1 304.588 653)">Pre</text><text font-family="Roboto Slab,Roboto Slab_MSFontService,sans-serif" font-weight="400" font-size="73" transform="matrix(1 0 0 1 418.598 653)">-</text><text font-family="Roboto Slab,Roboto Slab_MSFontService,sans-serif" font-weight="400" font-size="73" transform="matrix(1 0 0 1 447.244 653)">packaged Lean + </text><text font-family="Roboto Slab,Roboto Slab_MSFontService,sans-serif" font-weight="400" font-size="73" transform="matrix(1 0 0 1 209.483 741)">Mathlib</text><text font-family="Roboto Slab,Roboto Slab_MSFontService,sans-serif" font-weight="400" font-size="73" transform="matrix(1 0 0 1 482.765 741)">, zero setup hassle.</text><text font-family="Roboto Slab,Roboto Slab_MSFontService,sans-serif" font-weight="400" font-size="73" transform="matrix(1 0 0 1 1123.86 741)"> </text><path d="M155.5 916.835C155.5 879.094 186.094 848.5 223.834 848.5L1109.17 848.5C1146.91 848.5 1177.5 879.094 1177.5 916.835L1177.5 1190.17C1177.5 1227.91 1146.91 1258.5 1109.17 1258.5L223.834 1258.5C186.094 1258.5 155.5 1227.91 155.5 1190.17Z" stroke="#4EA72E" stroke-width="6.875" stroke-miterlimit="8" fill="#D9F2D0" fill-rule="evenodd"/><text font-family="Roboto Slab,Roboto Slab_MSFontService,sans-serif" font-weight="700" font-size="73" transform="matrix(1 0 0 1 455.837 947)">REPL</text><text font-family="Roboto Slab,Roboto Slab_MSFontService,sans-serif" font-weight="700" font-size="73" transform="matrix(1 0 0 1 643.754 947)">-</text><text font-family="Roboto Slab,Roboto Slab_MSFontService,sans-serif" font-weight="700" font-size="73" transform="matrix(1 0 0 1 672.973 947)">based</text><text font-family="Roboto Slab,Roboto Slab_MSFontService,sans-serif" font-weight="700" font-size="73" transform="matrix(1 0 0 1 875.785 947)"> </text><text font-family="Roboto Slab,Roboto Slab_MSFontService,sans-serif" font-weight="400" font-size="73" transform="matrix(1 0 0 1 257.883 1035)">Atomic operations with </text><text font-family="Roboto Slab,Roboto Slab_MSFontService,sans-serif" font-weight="400" font-size="73" transform="matrix(1 0 0 1 349.55 1123)">fully async, multi</text><text font-family="Roboto Slab,Roboto Slab_MSFontService,sans-serif" font-weight="400" font-size="73" transform="matrix(1 0 0 1 953.404 1123)">-</text><text font-family="Roboto Slab,Roboto Slab_MSFontService,sans-serif" font-weight="400" font-size="73" transform="matrix(1 0 0 1 322.921 1211)">threaded execution.</text><text font-family="Roboto Slab,Roboto Slab_MSFontService,sans-serif" font-weight="400" font-size="73" transform="matrix(1 0 0 1 1008.7 1211)"> </text><path d="M158.5 1374.83C158.5 1345.93 181.931 1322.5 210.834 1322.5L1128.17 1322.5C1157.07 1322.5 1180.5 1345.93 1180.5 1374.83L1180.5 1584.17C1180.5 1613.07 1157.07 1636.5 1128.17 1636.5L210.834 1636.5C181.931 1636.5 158.5 1613.07 158.5 1584.17Z" stroke="#4EA72E" stroke-width="6.875" stroke-miterlimit="8" fill="#D9F2D0" fill-rule="evenodd"/><text font-family="Roboto Slab,Roboto Slab_MSFontService,sans-serif" font-weight="700" font-size="73" transform="matrix(1 0 0 1 416.123 1417)">SQLite</text><text font-family="Roboto Slab,Roboto Slab_MSFontService,sans-serif" font-weight="700" font-size="73" transform="matrix(1 0 0 1 642.998 1417)">-</text><text font-family="Roboto Slab,Roboto Slab_MSFontService,sans-serif" font-weight="700" font-size="73" transform="matrix(1 0 0 1 672.217 1417)">backed</text><text font-family="Roboto Slab,Roboto Slab_MSFontService,sans-serif" font-weight="700" font-size="73" transform="matrix(1 0 0 1 922.009 1417)"> </text><text font-family="Roboto Slab,Roboto Slab_MSFontService,sans-serif" font-weight="400" font-size="73" transform="matrix(1 0 0 1 229.627 1505)">Reliable, lightweight data </text><text font-family="Roboto Slab,Roboto Slab_MSFontService,sans-serif" font-weight="400" font-size="73" transform="matrix(1 0 0 1 534.144 1593)">storage.</text><text font-family="Roboto Slab,Roboto Slab_MSFontService,sans-serif" font-weight="400" font-size="73" transform="matrix(1 0 0 1 803.988 1593)"> </text><path d="M156.5 1752.83C156.5 1723.93 179.931 1700.5 208.835 1700.5L1127.17 1700.5C1156.07 1700.5 1179.5 1723.93 1179.5 1752.83L1179.5 1962.17C1179.5 1991.07 1156.07 2014.5 1127.17 2014.5L208.835 2014.5C179.931 2014.5 156.5 1991.07 156.5 1962.17Z" stroke="#4EA72E" stroke-width="6.875" stroke-miterlimit="8" fill="#D9F2D0" fill-rule="evenodd"/><text font-family="Roboto Slab,Roboto Slab_MSFontService,sans-serif" font-weight="700" font-size="73" transform="matrix(1 0 0 1 408.308 1795)">Smart Caching</text><text font-family="Roboto Slab,Roboto Slab_MSFontService,sans-serif" font-weight="700" font-size="73" transform="matrix(1 0 0 1 926.798 1795)"> </text><text font-family="Roboto Slab,Roboto Slab_MSFontService,sans-serif" font-weight="400" font-size="73" transform="matrix(1 0 0 1 299.156 1883)">Hash</text><text font-family="Roboto Slab,Roboto Slab_MSFontService,sans-serif" font-weight="400" font-size="73" transform="matrix(1 0 0 1 480.198 1883)">-</text><text font-family="Roboto Slab,Roboto Slab_MSFontService,sans-serif" font-weight="400" font-size="73" transform="matrix(1 0 0 1 508.844 1883)">based reuse, no </text><text font-family="Roboto Slab,Roboto Slab_MSFontService,sans-serif" font-weight="400" font-size="73" transform="matrix(1 0 0 1 210.354 1971)">redundant runs or configs.</text><text font-family="Roboto Slab,Roboto Slab_MSFontService,sans-serif" font-weight="400" font-size="73" transform="matrix(1 0 0 1 1124.73 1971)"> </text><path d="M2409.5 1683C2409.5 1645.17 2440.17 1614.5 2478 1614.5L3262 1614.5C3299.83 1614.5 3330.5 1645.17 3330.5 1683L3330.5 1957C3330.5 1994.83 3299.83 2025.5 3262 2025.5L2478 2025.5C2440.17 2025.5 2409.5 1994.83 2409.5 1957Z" stroke="#156082" stroke-width="6.875" stroke-miterlimit="8" fill="#C1E5F5" fill-rule="evenodd"/><text font-family="Roboto Slab,Roboto Slab_MSFontService,sans-serif" font-weight="700" font-size="73" transform="matrix(1 0 0 1 2658.34 1758)">Lightweight</text><text font-family="Roboto Slab,Roboto Slab_MSFontService,sans-serif" font-weight="700" font-size="73" transform="matrix(1 0 0 1 3080.58 1758)"> </text><text font-family="Roboto Slab,Roboto Slab_MSFontService,sans-serif" font-weight="400" font-size="73" transform="matrix(1 0 0 1 2464.12 1846)">Minimal dependencies, </text><text font-family="Roboto Slab,Roboto Slab_MSFontService,sans-serif" font-weight="400" font-size="73" transform="matrix(1 0 0 1 2535.74 1934)">ultra</text><text font-family="Roboto Slab,Roboto Slab_MSFontService,sans-serif" font-weight="400" font-size="73" transform="matrix(1 0 0 1 2701.31 1934)">-</text><text font-family="Roboto Slab,Roboto Slab_MSFontService,sans-serif" font-weight="400" font-size="73" transform="matrix(1 0 0 1 2729.95 1934)">lean package.</text><text font-family="Roboto Slab,Roboto Slab_MSFontService,sans-serif" font-weight="400" font-size="73" transform="matrix(1 0 0 1 3203.18 1934)"> </text><path d="M3360.5 1683C3360.5 1645.17 3391.17 1614.5 3429 1614.5L4112 1614.5C4149.83 1614.5 4180.5 1645.17 4180.5 1683L4180.5 1957C4180.5 1994.83 4149.83 2025.5 4112 2025.5L3429 2025.5C3391.17 2025.5 3360.5 1994.83 3360.5 1957Z" stroke="#156082" stroke-width="6.875" stroke-miterlimit="8" fill="#C1E5F5" fill-rule="evenodd"/><text font-family="Roboto Slab,Roboto Slab_MSFontService,sans-serif" font-weight="700" font-size="73" transform="matrix(1 0 0 1 3441.47 1758)">Data Export (Soon) </text><text font-family="Roboto Slab,Roboto Slab_MSFontService,sans-serif" font-weight="400" font-size="73" transform="matrix(1 0 0 1 3458.38 1846)">Easily export data </text><text font-family="Roboto Slab,Roboto Slab_MSFontService,sans-serif" font-weight="400" font-size="73" transform="matrix(1 0 0 1 3442.61 1934)">in various formats.</text><text font-family="Roboto Slab,Roboto Slab_MSFontService,sans-serif" font-weight="400" font-size="73" transform="matrix(1 0 0 1 4098.03 1934)"> </text><path d="M3188 435.5C3188 372.816 3238.82 322 3301.5 322 3364.18 322 3415 372.816 3415 435.5 3415 498.184 3364.18 549 3301.5 549 3238.82 549 3188 498.184 3188 435.5Z" fill="#156082" fill-rule="evenodd"/><g><g><g><path d="M3223.08 491.667 3223.08 471.833C3223.08 467.819 3224.12 464.13 3226.18 460.766 3228.25 457.401 3230.99 454.833 3234.42 453.063 3241.74 449.403 3249.17 446.658 3256.73 444.828 3264.28 442.998 3271.96 442.083 3279.75 442.083 3287.54 442.083 3295.22 442.998 3302.77 444.828 3310.33 446.658 3317.76 449.403 3325.08 453.063 3328.51 454.833 3331.25 457.401 3333.32 460.766 3335.38 464.13 3336.42 467.819 3336.42 471.833L3336.42 491.667 3223.08 491.667ZM3350.58 491.667 3350.58 470.417C3350.58 465.222 3349.14 460.234 3346.24 455.453 3343.35 450.672 3339.25 446.569 3333.94 443.146 3339.96 443.854 3345.62 445.064 3350.94 446.776 3356.25 448.488 3361.21 450.583 3365.81 453.063 3370.06 455.424 3373.31 458.05 3375.55 460.943 3377.8 463.835 3378.92 466.993 3378.92 470.417L3378.92 491.667 3350.58 491.667ZM3279.75 435C3271.96 435 3265.29 432.226 3259.74 426.677 3254.19 421.129 3251.42 414.458 3251.42 406.667 3251.42 398.875 3254.19 392.205 3259.74 386.656 3265.29 381.108 3271.96 378.333 3279.75 378.333 3287.54 378.333 3294.21 381.108 3299.76 386.656 3305.31 392.205 3308.08 398.875 3308.08 406.667 3308.08 414.458 3305.31 421.129 3299.76 426.677 3294.21 432.226 3287.54 435 3279.75 435ZM3350.58 406.667C3350.58 414.458 3347.81 421.129 3342.26 426.677 3336.71 432.226 3330.04 435 3322.25 435 3320.95 435 3319.3 434.853 3317.29 434.557 3315.28 434.262 3313.63 433.938 3312.33 433.583 3315.52 429.806 3317.97 425.615 3319.68 421.01 3321.39 416.406 3322.25 411.625 3322.25 406.667 3322.25 401.708 3321.39 396.927 3319.68 392.323 3317.97 387.719 3315.52 383.528 3312.33 379.75 3313.99 379.16 3315.64 378.776 3317.29 378.599 3318.94 378.422 3320.6 378.333 3322.25 378.333 3330.04 378.333 3336.71 381.108 3342.26 386.656 3347.81 392.205 3350.58 398.875 3350.58 406.667ZM3237.25 477.5 3322.25 477.5 3322.25 471.833C3322.25 470.535 3321.93 469.354 3321.28 468.292 3320.63 467.229 3319.77 466.403 3318.71 465.813 3312.33 462.625 3305.9 460.234 3299.41 458.641 3292.91 457.047 3286.36 456.25 3279.75 456.25 3273.14 456.25 3266.59 457.047 3260.09 458.641 3253.6 460.234 3247.17 462.625 3240.79 465.813 3239.73 466.403 3238.87 467.229 3238.22 468.292 3237.57 469.354 3237.25 470.535 3237.25 471.833L3237.25 477.5ZM3279.75 420.833C3283.65 420.833 3286.98 419.446 3289.76 416.672 3292.53 413.898 3293.92 410.562 3293.92 406.667 3293.92 402.771 3292.53 399.436 3289.76 396.661 3286.98 393.887 3283.65 392.5 3279.75 392.5 3275.85 392.5 3272.52 393.887 3269.74 396.661 3266.97 399.436 3265.58 402.771 3265.58 406.667 3265.58 410.562 3266.97 413.898 3269.74 416.672 3272.52 419.446 3275.85 420.833 3279.75 420.833Z" fill="#FFFFFF"/></g></g></g></g></svg>