<?xml version="1.0" encoding="UTF-8" standalone="no"?>
<svg
   width="502"
   height="499"
   xml:space="preserve"
   overflow="hidden"
   version="1.1"
   id="svg9"
   xmlns="http://www.w3.org/2000/svg"
   xmlns:svg="http://www.w3.org/2000/svg"><defs
     id="defs4"><clipPath
       id="clip2"><rect
         x="145"
         y="922"
         width="642"
         height="670"
         id="rect2" /></clipPath></defs><g
     clip-path="url(#clip2)"
     transform="translate(-168,-953)"
     id="g9"><path
       d="M 168,1202.5 C 168,1064.7 280.377,953 419,953 c 138.623,0 251,111.7 251,249.5 0,137.8 -112.377,249.5 -251,249.5 -138.623,0 -251,-111.7 -251,-249.5 z"
       fill="#4ea72e"
       fill-rule="evenodd"
       id="path4" /><path
       d="m 148.837,2.66309 c -7.989,0 -14.844,-1.13428 -20.565,-3.402836 -5.721,-2.268554 -10.504,-5.794674 -14.351,-10.578354 -3.847,-4.7837 -7.052,-10.9729 -9.617,-18.5676 L 78.709,-101.049 H 77.8213 L 76.0459,-92.1724 47.4917,0 H 1.03564 L 57.5522,-156.234 47.0478,-179.61 c -1.9726,-4.439 -4.5617,-7.792 -7.7673,-10.061 -3.2056,-2.268 -6.9783,-3.403 -11.3181,-3.403 -1.7754,0 -3.3042,0.025 -4.5864,0.074 -1.2823,0.05 -2.6631,0.173 -4.1426,0.37 l -0.8877,-30.773 c 2.959,-0.888 6.8303,-1.603 11.614,-2.146 4.7837,-0.542 9.1975,-0.813 13.2415,-0.813 10.2578,0 18.4936,2.096 24.7075,6.288 6.2139,4.191 10.9975,10.381 14.3511,18.567 L 144.25,-46.4561 c 2.072,5.0303 4.266,8.877 6.584,11.5401 2.318,2.6631 5.302,3.9946 8.951,3.9946 1.085,0 1.997,0 2.737,0 0.74,0 1.504,-0.0493 2.293,-0.1479 l 0.296,32.69674 c -2.17,0.2959 -4.586,0.54248 -7.249,0.73975 -2.663,0.19726 -5.672,0.2959 -9.025,0.2959 z"
       fill="#e8e8e8"
       transform="translate(334.924,1309)"
       id="path6" /></g></svg>
